<svg xmlns="http://www.w3.org/2000/svg" viewBox="0 0 512 512"  xmlns:v="https://h5p.org"><path d="M216.509 228.553H17.897c-6.57 0-11.897-5.33-11.897-11.905V17.905C6 11.33 11.327 6 17.897 6h47.588c6.57 0 11.897 5.33 11.897 11.905v77.492c45.38-50.43 111.296-81.986 184.576-81.453 135.73.986 244.331 110.737 244.042 246.56C505.711 396.137 395.743 506 260.131 506c-63.538 0-121.444-24.12-165.08-63.705-5.055-4.585-5.288-12.454-.463-17.282l33.675-33.697c4.436-4.438 11.562-4.68 16.26-.521 30.769 27.245 71.239 43.777 115.607 43.777 96.432 0 174.488-78.091 174.488-174.603 0-96.495-78.04-174.603-174.488-174.603-57.993 0-109.333 28.25-141.052 71.759h97.43c6.57 0 11.897 5.33 11.897 11.905v47.619c0 6.574-5.327 11.905-11.897 11.905z"/></svg>
